<svg xmlns="http://www.w3.org/2000/svg"
    xmlns:xlink="http://www.w3.org/1999/xlink" style="display:none">
    <!-- Photoshop Icon -->
    <symbol id="photoshop" viewBox="0 0 83 80">
        <g clip-path="url(#clip0_906_1855)">
            <path d="M67.5214 0H14.5299C6.50526 0 0 6.50526 0 14.5299V65.4701C0 73.4947 6.50526 80 14.5299 80H67.5214C75.546 80 82.0513 73.4947 82.0513 65.4701V14.5299C82.0513 6.50526 75.546 0 67.5214 0Z" fill="#001E36"/>
            <path d="M18.4758 56.1007V20.9284C18.4758 20.6721 18.5859 20.5431 18.8061 20.5431C19.3926 20.5431 19.928 20.5345 20.7357 20.5156C21.5425 20.4975 22.414 20.4792 23.3502 20.4606C24.286 20.4424 25.2768 20.4241 26.3226 20.4055C27.3683 20.3874 28.4049 20.3783 29.4324 20.3779C32.2207 20.3779 34.5692 20.7265 36.4778 21.4238C38.1996 22.0062 39.7697 22.9651 41.074 24.2309C42.1797 25.3281 43.0341 26.6521 43.5784 28.1115C44.0933 29.5318 44.3542 31.0316 44.3491 32.5424C44.3491 35.4786 43.6702 37.9005 42.3125 39.808C40.9458 41.7235 39.0247 43.1739 36.8082 43.9638C34.4964 44.8264 31.9274 45.1189 29.1022 45.1189C28.2946 45.1189 27.7258 45.1098 27.3958 45.0914C27.0656 45.0733 26.5703 45.0641 25.9098 45.0639V56.0457C25.9194 56.113 25.9132 56.1816 25.8917 56.2461C25.8702 56.3106 25.834 56.3692 25.7859 56.4172C25.7378 56.4653 25.6792 56.5015 25.6147 56.523C25.5502 56.5445 25.4816 56.5507 25.4143 56.5411H18.8611C18.604 56.5411 18.4758 56.3948 18.4758 56.1007ZM25.9098 27.1482V38.62C26.3862 38.657 26.8265 38.6753 27.2307 38.675H29.0471C30.3836 38.6706 31.7113 38.4586 32.9828 38.0467C34.0732 37.7228 35.0476 37.0923 35.7899 36.2303C36.5054 35.3866 36.8632 34.2124 36.8633 32.7076C36.8923 31.6428 36.6153 30.5921 36.065 29.6802C35.4866 28.7983 34.6506 28.1161 33.6707 27.7262C32.3913 27.2289 31.0246 26.9949 29.6526 27.0382C28.7718 27.0382 27.9921 27.0473 27.3134 27.0656C26.6339 27.0846 26.1661 27.1121 25.9098 27.1482Z" fill="#31A8FF"/>
            <path d="M65.6311 36.534C64.5967 36.0025 63.495 35.6137 62.3561 35.3781C61.1011 35.0902 59.8181 34.9425 58.5306 34.9377C57.8342 34.9189 57.1387 35.0023 56.4665 35.1855C56.0386 35.2807 55.6583 35.5245 55.3931 35.8735C55.2137 36.1526 55.1182 36.4774 55.118 36.8092C55.128 37.1311 55.2441 37.4407 55.4482 37.6899C55.7697 38.066 56.1626 38.3747 56.604 38.5981C57.3888 39.0207 58.1975 39.3975 59.0259 39.7265C60.8732 40.3449 62.6384 41.1858 64.2825 42.2309C65.4025 42.9378 66.3293 43.9119 66.9796 45.0656C67.5265 46.1581 67.8003 47.3669 67.7778 48.5884C67.8107 50.2013 67.3498 51.7858 66.4568 53.1294C65.5007 54.4933 64.1728 55.5537 62.6312 56.1842C60.961 56.9179 58.8969 57.2849 56.439 57.2851C54.8775 57.3009 53.3186 57.1533 51.7878 56.8448C50.5818 56.6236 49.4077 56.2539 48.2926 55.7439C48.1722 55.6818 48.0721 55.5867 48.0039 55.4697C47.9356 55.3527 47.9021 55.2187 47.9073 55.0834V49.1388C47.9007 49.0806 47.91 49.0217 47.9342 48.9683C47.9585 48.915 47.9968 48.8693 48.045 48.836C48.0923 48.8093 48.1466 48.7976 48.2006 48.8026C48.2547 48.8075 48.306 48.8288 48.3477 48.8636C49.6646 49.6401 51.0945 50.2065 52.5859 50.5424C53.9005 50.8719 55.2489 51.0473 56.604 51.0653C57.8881 51.0653 58.833 50.9001 59.4387 50.5699C59.7123 50.4447 59.9437 50.2429 60.1049 49.9889C60.2661 49.7349 60.3502 49.4396 60.347 49.1388C60.347 48.6623 60.0718 48.2037 59.5214 47.7627C58.971 47.3224 57.8518 46.7903 56.1637 46.1664C54.4354 45.5649 52.7967 44.7317 51.2924 43.6896C50.2165 42.9413 49.3305 41.9516 48.7054 40.7998C48.1641 39.7152 47.8904 38.5167 47.9073 37.3046C47.9042 35.8482 48.3043 34.4194 49.0632 33.1764C49.9284 31.8076 51.1709 30.718 52.641 30.039C54.2553 29.2322 56.2735 28.8286 58.6958 28.828C60.1143 28.8166 61.5315 28.9178 62.934 29.1307C63.9497 29.2596 64.9426 29.5281 65.8847 29.9289C65.9594 29.9503 66.0281 29.9888 66.0854 30.0413C66.1427 30.0939 66.1871 30.159 66.2149 30.2316C66.2521 30.366 66.2706 30.5049 66.27 30.6444V36.2037C66.2738 36.2684 66.2605 36.333 66.2316 36.3909C66.2026 36.4489 66.1589 36.4982 66.1049 36.534C66.0313 36.5706 65.9502 36.5897 65.868 36.5897C65.7858 36.5897 65.7047 36.5706 65.6311 36.534Z" fill="#31A8FF"/>
        </g>
        <defs>
            <clipPath id="clip0_906_1855">
                <rect width="82.0513" height="80" fill="white"/>
            </clipPath>
        </defs>
    </symbol>
    <!-- Illustrator Icon -->
    <symbol id="illustrator" viewBox="0 0 83 80">
        <g clip-path="url(#clip0_906_1865)">
            <path d="M67.5214 0H14.5299C6.50526 0 0 6.50526 0 14.5299V65.4701C0 73.4947 6.50526 80 14.5299 80H67.5214C75.546 80 82.0513 73.4947 82.0513 65.4701V14.5299C82.0513 6.50526 75.546 0 67.5214 0Z" fill="#330000"/>
            <path d="M39.7607 48.0096H27.0459L24.4589 56.0459C24.4237 56.1924 24.3384 56.3221 24.2178 56.4125C24.0972 56.503 23.9489 56.5485 23.7984 56.5413H17.3584C16.9911 56.5413 16.8627 56.3395 16.9731 55.9358L27.9815 24.2312C28.0917 23.901 28.2018 23.5249 28.3119 23.1028C28.4559 22.3684 28.5296 21.622 28.5321 20.8736C28.5246 20.8213 28.5294 20.7679 28.5461 20.7178C28.5629 20.6676 28.591 20.6221 28.6284 20.5847C28.6658 20.5473 28.7114 20.5191 28.7615 20.5024C28.8117 20.4856 28.865 20.4808 28.9174 20.4883H37.669C37.9255 20.4883 38.0722 20.58 38.1094 20.7635L50.6042 55.9908C50.7143 56.3581 50.6041 56.5416 50.2739 56.5413H43.1183C42.9954 56.5549 42.8717 56.5233 42.7704 56.4524C42.6692 56.3815 42.5971 56.2761 42.5679 56.156L39.7607 48.0096ZM29.0274 41.0743H37.7241C37.504 40.3407 37.2471 39.515 36.9536 38.5973C36.6594 37.6805 36.3476 36.6989 36.0179 35.6525C35.6876 34.6068 35.3572 33.561 35.027 32.5151C34.6968 31.4693 34.3941 30.4602 34.1189 29.4877C33.8436 28.5159 33.5959 27.6261 33.3759 26.8182H33.3208C33.0109 28.3048 32.6251 29.7745 32.1649 31.2216C31.6506 32.8729 31.1276 34.5609 30.5961 36.2855C30.0637 38.0108 29.5408 39.6071 29.0274 41.0743Z" fill="#FF9A00"/>
            <path d="M58.0343 26.3229C57.4729 26.3455 56.9131 26.2493 56.3914 26.0406C55.8697 25.8319 55.398 25.5155 55.007 25.112C54.6171 24.691 54.3142 24.1971 54.1158 23.6587C53.9174 23.1202 53.8274 22.5479 53.851 21.9746C53.831 21.4069 53.9309 20.8414 54.1443 20.315C54.3577 19.7886 54.6798 19.3131 55.0894 18.9197C55.4951 18.5303 55.974 18.2252 56.4984 18.0221C57.0227 17.8189 57.5822 17.7218 58.1443 17.7363C59.4654 17.7363 60.5021 18.1307 61.2543 18.9197C61.634 19.3297 61.9291 19.8105 62.1227 20.3347C62.3163 20.8589 62.4046 21.4162 62.3826 21.9746C62.4056 22.5501 62.3127 23.1245 62.1094 23.6634C61.9061 24.2024 61.5966 24.695 61.1992 25.112C60.7839 25.5214 60.2882 25.8404 59.7435 26.0488C59.1988 26.2572 58.6169 26.3505 58.0343 26.3229ZM54.2362 55.9909V29.6805C54.2362 29.3503 54.3825 29.1851 54.6766 29.1851H61.4469C61.7403 29.1851 61.887 29.3502 61.8873 29.6805V55.9909C61.8873 56.3582 61.7405 56.5416 61.4469 56.5414H54.7317C54.4015 56.5414 54.2364 56.3579 54.2362 55.9909Z" fill="#FF9A00"/>
        </g>
        <defs>
            <clipPath id="clip0_906_1865">
                <rect width="82.0513" height="80" fill="white"/>
            </clipPath>
        </defs>
    </symbol>
    <!-- Indesign icon -->
    <symbol id="indesign" viewBox="0 0 83 80">
        <g clip-path="url(#clip0_906_1830)">
            <path d="M67.5214 0H14.5299C6.50526 0 0 6.50526 0 14.5299V65.4701C0 73.4947 6.50526 80 14.5299 80H67.5214C75.546 80 82.0513 73.4947 82.0513 65.4701V14.5299C82.0513 6.50526 75.546 0 67.5214 0Z" fill="#49021F"/>
            <path d="M29.7977 20.9286V55.9908C29.7977 56.3581 29.6326 56.5415 29.3024 56.5413H22.6421C22.3481 56.5413 22.2014 56.3578 22.2019 55.9908V20.9286C22.2019 20.6353 22.367 20.4885 22.6972 20.4882H29.3574C29.4172 20.4797 29.4781 20.4853 29.5355 20.5044C29.5928 20.5235 29.6448 20.5557 29.6875 20.5984C29.7303 20.6412 29.7625 20.6932 29.7816 20.7505C29.8007 20.8078 29.8062 20.8688 29.7977 20.9286Z" fill="#FF3366"/>
            <path d="M49.5031 57.0919C46.9696 57.1304 44.4594 56.6039 42.1549 55.5506C40.0081 54.5571 38.2135 52.9352 37.0085 50.8995C35.7605 48.8268 35.1366 46.2306 35.137 43.111C35.1162 40.5847 35.7618 38.0977 37.0085 35.9004C38.2926 33.6622 40.1811 31.831 42.4577 30.6163C44.8425 29.2952 47.723 28.6347 51.0993 28.6347C51.2825 28.6347 51.521 28.6439 51.8148 28.6623C52.1081 28.6812 52.4567 28.7087 52.8607 28.7448V17.9014C52.8607 17.6451 52.9708 17.5161 53.191 17.5161H60.1263C60.1711 17.5097 60.2169 17.5138 60.2599 17.5282C60.3029 17.5425 60.3419 17.5666 60.374 17.5986C60.4061 17.6307 60.4302 17.6697 60.4445 17.7127C60.4589 17.7557 60.463 17.8015 60.4566 17.8463V50.3766C60.4566 51.001 60.4841 51.6799 60.5391 52.4132C60.5942 53.1476 60.6401 53.8081 60.6768 54.3947C60.6836 54.509 60.6556 54.6228 60.5967 54.721C60.5378 54.8192 60.4505 54.8973 60.3465 54.9452C58.5573 55.6914 56.6937 56.2449 54.7872 56.5964C53.0441 56.9181 51.2757 57.0839 49.5031 57.0919ZM52.8606 50.2665V35.2399C52.5631 35.1593 52.2594 35.104 51.9525 35.0747C51.5776 35.037 51.2009 35.0187 50.8241 35.0197C49.4884 35.0064 48.1684 35.3081 46.9711 35.9004C45.805 36.48 44.8093 37.3525 44.0814 38.4323C43.3289 39.5332 42.9528 40.9827 42.953 42.7807C42.9262 43.9806 43.1221 45.175 43.5309 46.3034C43.8636 47.2127 44.3894 48.0389 45.0722 48.7253C45.7258 49.3568 46.5172 49.8279 47.3839 50.1014C48.2994 50.3979 49.2563 50.5465 50.2186 50.5417C50.7321 50.5417 51.2091 50.5234 51.6497 50.4867C52.0599 50.4558 52.4658 50.382 52.8606 50.2665Z" fill="#FF3366"/>
        </g>
        <defs>
            <clipPath id="clip0_906_1830">
                <rect width="82.0513" height="80" fill="white"/>
            </clipPath>
        </defs>
    </symbol>
    <!-- Figma icon-->
    <symbol id="figma" viewBox="0 0 54 80">
        <g clip-path="url(#clip0_912_3)">
            <path d="M13.3333 80.0002C20.6933 80.0002 26.6667 74.0268 26.6667 66.6668V53.3335H13.3333C5.97333 53.3335 0 59.3068 0 66.6668C0 74.0268 5.97333 80.0002 13.3333 80.0002Z" fill="#0ACF83"/>
            <path d="M0 39.9998C0 32.6398 5.97333 26.6665 13.3333 26.6665H26.6667V53.3332H13.3333C5.97333 53.3332 0 47.3598 0 39.9998Z" fill="#A259FF"/>
            <path d="M0 13.3333C0 5.97333 5.97333 0 13.3333 0H26.6667V26.6667H13.3333C5.97333 26.6667 0 20.6933 0 13.3333Z" fill="#F24E1E"/>
            <path d="M26.6667 0H40.0001C47.3601 0 53.3334 5.97333 53.3334 13.3333C53.3334 20.6933 47.3601 26.6667 40.0001 26.6667H26.6667V0Z" fill="#FF7262"/>
            <path d="M53.3334 39.9998C53.3334 47.3598 47.3601 53.3332 40.0001 53.3332C32.6401 53.3332 26.6667 47.3598 26.6667 39.9998C26.6667 32.6398 32.6401 26.6665 40.0001 26.6665C47.3601 26.6665 53.3334 32.6398 53.3334 39.9998Z" fill="#1ABCFE"/>
        </g>
        <defs>
            <clipPath id="clip0_912_3">
                <rect width="53.3333" height="80" fill="white"/>
            </clipPath>
        </defs>
    </symbol>
    <!-- XD icon -->
    <symbol id="xd" viewBox="0 0 240 234">
        <path fill="#470137" d="M42.5 0h155C221 0 240 19 240 42.5v149c0 23.5-19 42.5-42.5 42.5h-155C19 234 0 215 0 191.5v-149C0 19 19 0 42.5 0z"/>
        <path fill="#ff61f6" d="m126.2 61.5-30 49.5 32 52.5c.2.4.3.8.2 1.2-.1.4-.5.1-1.1.2h-22.9c-1.6 0-2.7-.1-3.4-1.1-2.1-4.2-4.3-8.3-6.4-12.5-2.1-4.1-4.4-8.3-6.8-12.6-2.4-4.3-4.8-8.6-7.2-13h-.2c-2.1 4.3-4.4 8.6-6.7 12.9-2.3 4.3-4.6 8.6-6.8 12.8-2.3 4.2-4.6 8.5-6.9 12.6-.4 1-1.2 1.1-2.3 1.1h-22c-.4 0-.7.2-.7-.3-.1-.4 0-.8.2-1.1l31.1-51L36 61.4c-.3-.4-.4-.8-.2-1 .2-.3.6-.4 1-.4h22.7c.5 0 1 .1 1.4.2.4.2.7.5 1 .9 1.9 4.3 4.1 8.6 6.4 12.9 2.4 4.3 4.7 8.5 7.2 12.7 2.4 4.2 4.6 8.4 6.7 12.7h.2c2.1-4.4 4.3-8.7 6.5-12.9 2.2-4.2 4.5-8.4 6.8-12.6 2.3-4.2 4.5-8.5 6.7-12.6.1-.4.3-.8.6-1 .4-.2.8-.3 1.3-.2h21.1c.5-.1 1 .2 1.1.7.1.1-.1.5-.3.7zM172.4 167c-7.4.1-14.8-1.4-21.5-4.5-6.3-2.9-11.5-7.7-15.1-13.6-3.7-6.1-5.5-13.7-5.5-22.8-.1-7.4 1.8-14.7 5.5-21.1 3.8-6.5 9.3-11.9 15.9-15.5 7-3.9 15.4-5.8 25.3-5.8.5 0 1.2 0 2.1.1.9.1 1.9.1 3.1.2V52.4c0-.7.3-1.1 1-1.1h20.3c.5-.1.9.3 1 .7v95.4c0 1.8.1 3.8.2 6 .2 2.1.3 4.1.4 5.8 0 .7-.3 1.3-1 1.6-5.2 2.2-10.7 3.8-16.3 4.8-5.1.9-10.2 1.4-15.4 1.4zm9.8-20v-44c-.9-.2-1.8-.4-2.7-.5-1.1-.1-2.2-.2-3.3-.2-3.9 0-7.8.8-11.3 2.6-3.4 1.7-6.3 4.2-8.5 7.4s-3.3 7.5-3.3 12.7c-.1 3.5.5 7 1.7 10.3 1 2.7 2.5 5.1 4.5 7.1 1.9 1.8 4.2 3.2 6.8 4 2.7.9 5.5 1.3 8.3 1.3 1.5 0 2.9-.1 4.2-.2 1.3.1 2.4-.1 3.6-.5z"/>
    </symbol>
    <!-- Canva icon-->
    <symbol id="canva" viewBox="0 0 80 80">
        <g clip-path="url(#clip0_905_1790)">
            <path d="M40 80C62.0914 80 80 62.0914 80 40C80 17.9086 62.0914 0 40 0C17.9086 0 0 17.9086 0 40C0 62.0914 17.9086 80 40 80Z" fill="#7D2AE7"/>
            <path d="M40 80C62.0914 80 80 62.0914 80 40C80 17.9086 62.0914 0 40 0C17.9086 0 0 17.9086 0 40C0 62.0914 17.9086 80 40 80Z" fill="url(#paint0_radial_905_1790)"/>
            <path d="M40 80C62.0914 80 80 62.0914 80 40C80 17.9086 62.0914 0 40 0C17.9086 0 0 17.9086 0 40C0 62.0914 17.9086 80 40 80Z" fill="url(#paint1_radial_905_1790)"/>
            <path d="M40 80C62.0914 80 80 62.0914 80 40C80 17.9086 62.0914 0 40 0C17.9086 0 0 17.9086 0 40C0 62.0914 17.9086 80 40 80Z" fill="url(#paint2_radial_905_1790)"/>
            <path d="M40 80C62.0914 80 80 62.0914 80 40C80 17.9086 62.0914 0 40 0C17.9086 0 0 17.9086 0 40C0 62.0914 17.9086 80 40 80Z" fill="url(#paint3_radial_905_1790)"/>
            <path d="M57.2691 48.2052C56.939 48.2052 56.6485 48.484 56.3462 49.0928C52.9323 56.0153 47.0358 60.9134 40.2125 60.9134C32.3228 60.9134 27.437 53.7913 27.437 43.9522C27.437 27.2855 36.7232 17.6491 44.8796 17.6491C48.691 17.6491 51.0186 20.0443 51.0186 23.8559C51.0186 28.3796 48.4485 30.7748 48.4485 32.3702C48.4485 33.0864 48.8939 33.5201 49.7773 33.5201C53.3264 33.5201 57.4918 29.4419 57.4918 23.6808C57.4918 18.0947 52.63 13.9888 44.4737 13.9888C30.994 13.9888 19.0142 26.4858 19.0142 43.777C19.0142 57.1614 26.6572 66.0061 38.45 66.0061C50.9668 66.0061 58.2043 53.5526 58.2043 49.5105C58.2043 48.6153 57.7466 48.2052 57.2691 48.2052Z" fill="white"/>
        </g>
        <defs>
            <radialGradient id="paint0_radial_905_1790" cx="0" cy="0" r="1" gradientUnits="userSpaceOnUse" gradientTransform="translate(15.453 70.9057) rotate(-49.416) scale(61.8733)">
                <stop stop-color="#6420FF"/>
                <stop offset="1" stop-color="#6420FF" stop-opacity="0"/>
            </radialGradient>
            <radialGradient id="paint1_radial_905_1790" cx="0" cy="0" r="1" gradientUnits="userSpaceOnUse" gradientTransform="translate(21.1788 9.09457) rotate(54.703) scale(69.7735)">
                <stop stop-color="#00C4CC"/>
                <stop offset="1" stop-color="#00C4CC" stop-opacity="0"/>
            </radialGradient>
            <radialGradient id="paint2_radial_905_1790" cx="0" cy="0" r="1" gradientUnits="userSpaceOnUse" gradientTransform="translate(15.4526 70.9053) rotate(-45.1954) scale(61.1242 28.1118)">
                <stop stop-color="#6420FF"/>
                <stop offset="1" stop-color="#6420FF" stop-opacity="0"/>
            </radialGradient>
            <radialGradient id="paint3_radial_905_1790" cx="0" cy="0" r="1" gradientUnits="userSpaceOnUse" gradientTransform="translate(32.7158 10.7789) rotate(66.5198) scale(62.9836 105.512)">
                <stop stop-color="#00C4CC" stop-opacity="0.725916"/>
                <stop offset="0.0001" stop-color="#00C4CC"/>
                <stop offset="1" stop-color="#00C4CC" stop-opacity="0"/>
            </radialGradient>
            <clipPath id="clip0_905_1790">
                <rect width="80" height="80" fill="white"/>
            </clipPath>
        </defs>
    </symbol>
    <!--behance logo-->
    <symbol id="behance" viewBox="0 0 333333 333333" shape-rendering="geometricPrecision" text-rendering="geometricPrecision" image-rendering="optimizeQuality" fill-rule="evenodd" clip-rule="evenodd">
        <path d="M96656 62252c9824 0 18671 854 26734 2608 8083 1685 14911 4559 20707 8459 5726 3913 10144 9122 13409 15620 3126 6435 4687 14512 4687 24077 0 10352-2331 18935-7037 25848-4748 6896-11646 12500-20898 16935 12622 3642 21937 10021 28187 19076 6244 9122 9246 20055 9246 32929 0 10415-2023 19329-5974 26882-4035 7622-9504 13797-16203 18559-6768 4811-14579 8329-23309 10606-8667 2264-17581 3451-26797 3451l-99407 2V62270l96667 6-12-26v2zm120854 16541h83133v20252l-83133-6V78787v6zm18474 152836c6128 5974 14911 8976 26378 8976 8201 0 15372-2093 21285-6256 5911-4165 9504-8575 10876-13140l35919 6c-5795 17889-14517 30598-26488 38281-11793 7683-26224 11585-42969 11585-11730 0-22200-1902-31643-5610-9437-3772-17311-9037-23955-15957-6441-6896-11516-15096-15102-24736-3520-9559-5327-20183-5327-31638 0-11128 1833-21482 5457-31053 3709-9645 8791-17895 15557-24872 6760-6970 14703-12500 24083-16535 9315-4041 19600-6065 30992-6065 12555 0 23555 2417 32998 7358 9376 4872 17120 11455 23173 19661 6065 8213 10352 17642 13023 28181 2669 10537 3581 21537 2848 33077l-107200-4c0 11646 3913 22791 10083 28699l12 43v-2zm46807-77972c-4811-5333-13085-8268-23037-8268-6522 0-11909 1100-16202 3315-4226 2203-7683 4933-10352 8201-2602 3254-4435 6773-5451 10470-1039 3581-1685 6896-1902 9770l66407-6c-978-10407-4559-18092-9437-23492l-24 12-2-2zm-192011-8606c7998 0 14635-1902 19838-5734 5205-3772 7683-10022 7683-18620 0-4742-848-8728-2541-11793-1746-3057-4041-5474-6963-7159-2872-1748-6114-2941-9947-3587-3708-707-7622-1033-11582-1033H45093v47904h45701l-12 24h-2zm2474 87287c4441 0 8667-394 12610-1317 4035-909 7622-2270 10606-4348 2996-2024 5541-4681 7350-8201 1833-3457 2669-7874 2669-13270 0-10537-3002-18098-8913-22663-5911-4504-13787-6705-23549-6705H45080v56423l48173-6v87z" fill="#1769ff"/>
    </symbol>
    <!--LinkedIn icon-->
    <symbol id="linkedin" viewBox="0 0 256 256">
        <path d="M218.123 218.127h-37.931v-59.403c0-14.165-.253-32.4-19.728-32.4-19.756 0-22.779 15.434-22.779 31.369v60.43h-37.93V95.967h36.413v16.694h.51a39.907 39.907 0 0 1 35.928-19.733c38.445 0 45.533 25.288 45.533 58.186l-.016 67.013ZM56.955 79.27c-12.157.002-22.014-9.852-22.016-22.009-.002-12.157 9.851-22.014 22.008-22.016 12.157-.003 22.014 9.851 22.016 22.008A22.013 22.013 0 0 1 56.955 79.27m18.966 138.858H37.95V95.967h37.97v122.16ZM237.033.018H18.89C8.58-.098.125 8.161-.001 18.471v219.053c.122 10.315 8.576 18.582 18.89 18.474h218.144c10.336.128 18.823-8.139 18.966-18.474V18.454c-.147-10.33-8.635-18.588-18.966-18.453" fill="#0A66C2"/>
    </symbol>
</svg>

    